<svg width="18" height="50" viewBox="0 0 18 50" fill="none" xmlns="http://www.w3.org/2000/svg">
<path d="M4.77387 18.0706C6.82945 19.3495 7.85723 19.989 9 19.989C10.1428 19.989 11.1706 19.3495 13.2261 18.0706L13.5 17.9002L14.2261 17.4484C16.0708 16.3007 16.9932 15.7269 17.4966 14.8208C18 13.9147 18 12.8284 18 10.6558V10.0862C18 7.92776 18 6.84854 17.5022 5.94638C17.0044 5.04423 16.0913 4.46884 14.2652 3.31806L13.2652 2.68786C11.1919 1.38127 10.1553 0.727978 9 0.727978C7.84475 0.727978 6.80809 1.38127 4.73477 2.68786L3.73477 3.31806C1.90869 4.46884 0.99565 5.04423 0.497825 5.94638C0 6.84854 0 7.92776 0 10.0862L0 10.6558C0 12.8284 0 13.9147 0.503412 14.8208C1.00682 15.7269 1.92917 16.3007 3.77387 17.4484L4.77387 18.0706Z" fill="#B6150B"/>
<path d="M4.77387 18.0706C6.82945 19.3495 7.85723 19.989 9 19.989C10.1428 19.989 11.1706 19.3495 13.2261 18.0706L13.5 17.9002L14.2261 17.4484C16.0708 16.3007 16.9932 15.7269 17.4966 14.8208C18 13.9147 18 12.8284 18 10.6558V10.0862C18 7.92776 18 6.84854 17.5022 5.94638C17.0044 5.04423 16.0913 4.46884 14.2652 3.31806L13.2652 2.68786C11.1919 1.38127 10.1553 0.727978 9 0.727978C7.84475 0.727978 6.80809 1.38127 4.73477 2.68786L3.73477 3.31806C1.90869 4.46884 0.99565 5.04423 0.497825 5.94638C0 6.84854 0 7.92776 0 10.0862L0 10.6558C0 12.8284 0 13.9147 0.503412 14.8208C1.00682 15.7269 1.92917 16.3007 3.77387 17.4484L4.77387 18.0706Z" stroke="white"/>
<path d="M4.77387 32.2457C6.82945 33.5246 7.85723 34.164 9 34.164C10.1428 34.164 11.1706 33.5246 13.2261 32.2457L13.5 32.0753L14.2261 31.6235C16.0708 30.4758 16.9932 29.9019 17.4966 28.9958C18 28.0897 18 27.0034 18 24.8309V24.2612C18 22.1028 18 21.0236 17.5022 20.1214C17.0044 19.2193 16.0913 18.6439 14.2652 17.4931L13.2652 16.8629C11.1919 15.5563 10.1553 14.903 9 14.903C7.84475 14.903 6.80809 15.5563 4.73477 16.8629L3.73477 17.4931C1.90869 18.6439 0.99565 19.2193 0.497825 20.1214C0 21.0236 0 22.1028 0 24.2613L0 24.8309C0 27.0034 0 28.0897 0.503412 28.9958C1.00682 29.9019 1.92917 30.4758 3.77387 31.6235L4.77387 32.2457Z" fill="#DF9526"/>
<path d="M4.77387 32.2457C6.82945 33.5246 7.85723 34.164 9 34.164C10.1428 34.164 11.1706 33.5246 13.2261 32.2457L13.5 32.0753L14.2261 31.6235C16.0708 30.4758 16.9932 29.9019 17.4966 28.9958C18 28.0897 18 27.0034 18 24.8309V24.2612C18 22.1028 18 21.0236 17.5022 20.1214C17.0044 19.2193 16.0913 18.6439 14.2652 17.4931L13.2652 16.8629C11.1919 15.5563 10.1553 14.903 9 14.903C7.84475 14.903 6.80809 15.5563 4.73477 16.8629L3.73477 17.4931C1.90869 18.6439 0.99565 19.2193 0.497825 20.1214C0 21.0236 0 22.1028 0 24.2613L0 24.8309C0 27.0034 0 28.0897 0.503412 28.9958C1.00682 29.9019 1.92917 30.4758 3.77387 31.6235L4.77387 32.2457Z" stroke="white"/>
<path d="M17 39.0059V38.4363C17 37.3383 16.999 36.5843 16.9423 35.9902C16.8876 35.4173 16.7865 35.0694 16.6266 34.7796C16.4667 34.4898 16.2263 34.2188 15.7707 33.8671C15.2984 33.5025 14.661 33.0996 13.7321 32.5142L12.7321 31.884C11.6778 31.2196 10.9512 30.7632 10.3462 30.465C9.76236 30.1772 9.37012 30.0781 9 30.0781C8.62988 30.0781 8.23764 30.1772 7.65376 30.465C7.04879 30.7632 6.32222 31.2196 5.26792 31.884L4.26792 32.5142C3.33902 33.0996 2.70164 33.5025 2.22928 33.8671C1.77372 34.2188 1.53327 34.4898 1.37337 34.7796C1.21347 35.0694 1.11236 35.4173 1.05771 35.9902C1.00105 36.5843 1 37.3383 1 38.4363V39.0059C1 40.1111 1.00106 40.8701 1.05836 41.4679C1.11363 42.0444 1.21588 42.3942 1.37756 42.6852C1.53924 42.9762 1.78221 43.2478 2.24254 43.5993C2.71983 43.9638 3.36378 44.3656 4.30214 44.9495L5.30214 45.5716C6.34745 46.222 7.06762 46.6686 7.66696 46.9604C8.24537 47.242 8.63378 47.3391 9 47.3391C9.36622 47.3391 9.75464 47.242 10.333 46.9604C10.9324 46.6686 11.6526 46.222 12.6979 45.5716L12.9717 45.4012L13.6979 44.9495C14.6362 44.3656 15.2802 43.9638 15.7575 43.5993C16.2178 43.2478 16.4608 42.9762 16.6224 42.6852C16.7841 42.3942 16.8864 42.0444 16.9416 41.4679C16.9989 40.8701 17 40.1111 17 39.0059Z" fill="#028F10" stroke="white" stroke-width="2"/>
</svg>
